# xmcd
#
# Track frame offsets:
#	150
#	18678
#	36436
#	52705
#	70992
#	89496
#	104376
#	122883
#	138475
#	154044
#	171953
#	186864
#	202961
#	221831
#	235260
#	250921
#
# Disc length: 3571 seconds
#
# Revision: 0
# Processed by: cddbd v1.5.2PL0 Copyright (c) Steve Scherf et al.
# Submitted via: EasyCDDAExtractor 16.0.6.1
#
DISCID=ea0df110
DTITLE=Μακρόπουλος Νίκος - Δέκα έξι μεγ. επιτυχίες-Ν. Μακρόπουλος 3
DYEAR=2010
DGENRE=Λαϊκή νεώτερη
TTITLE0=Επέτειος χωρισμού [Χριστόδ. Σιγανός-ιδίου/Valentino/Χ. Πρώϊος]
TTITLE1=Ψυχανάλυση [Βο-Νίκος Γρίτσης]
TTITLE2=Άγγελοι [Σταμάτης Γονίδης]
TTITLE3=Αύριο [Νίκος Βώνης]
TTITLE4=Εσύ τα όνειρά μου [Παναγ. Αποστολίδης-Βούλη Μεγαλοοικονόμου]
TTITLE5=Όταν για μένα θα μιλάς [ΕυθύβουλοςᾹγγελική Μακρυνιώτη]
TTITLE6=Καιρός να φύγω [Πάνος Τσαπανίδης]
TTITLE7=Μην κάνεις παράπονα [Δημ. Κορδατζής-Αναστασία Καραμεσίνη]
TTITLE8=Πάλι με τρέχεις [Βαγγ. Τούντας-΄Αννα Μαρία Ψέμμα]
TTITLE9=Κρατήθηκα [Ιορδάνης Παύλου-Γιάννης Μάλλιας]
TTITLE10=Θα βλέπεις την πλάτη μου [Αλ. Χρυσοβέργης-Σπύρος Γιατράς]
TTITLE11=Γιορτάζω [Γιάννης Μπουλταδάκης]
TTITLE12=Διώξτε τη [Χάρης Γαλανός]
TTITLE13=Έχω ξεχρεώσει [[ορδάνης Παύλου-Γιάννης Μάλλιας]
TTITLE14=Να μη σε νοιάζει [Νίκος Παπαδόπουλος-Δημ. Φραγκούλης]
TTITLE15=Δεν έχεις το δικαίωμα [Αντ. Σκόκος-Νίκος Σαρρής]
EXTD=
EXTT0=
EXTT1=
EXTT2=
EXTT3=
EXTT4=
EXTT5=
EXTT6=
EXTT7=
EXTT8=
EXTT9=
EXTT10=
EXTT11=
EXTT12=
EXTT13=
EXTT14=
EXTT15=
PLAYORDER=
